<svg height="2254" width="720" xmlns="http://www.w3.org/2000/svg">
<rect height="2254" fill="#555" width="720"></rect>
<text fill="#7f7" font-family="Courier New" font-size="12" xml:space="preserve">
<tspan x="10" y="26"></tspan>
<tspan x="10" y="42">&gt; npmdoc-sequelize@0.0.1 test /home/travis/build/npmdoc/node-npmdoc-sequelize</tspan>
<tspan x="10" y="58">&gt; (set -e; export PORT=$(utility2 shServerPortRandom); utility2 test test.js)</tspan>
<tspan x="10" y="74"></tspan>
<tspan x="10" y="90"></tspan>
<tspan x="10" y="106">[MODE_BUILD=npmTest] - 2017-03-25T12:31:12Z - npm-testing /home/travis/build/npmdoc/node-npmdoc-\</tspan>
<tspan x="10" y="122">sequelize</tspan>
<tspan x="10" y="138"></tspan>
<tspan x="10" y="154"></tspan>
<tspan x="10" y="170">covering $ /home/travis/.nvm/versions/node/v6.10.1/bin/node /home/travis/build/npmdoc/node-npmdo\</tspan>
<tspan x="10" y="186">c-sequelize/test.js</tspan>
<tspan x="10" y="202">merging file:///home/travis/build/npmdoc/node-npmdoc-sequelize/tmp/build/test-report.json to tes\</tspan>
<tspan x="10" y="218">t-report</tspan>
<tspan x="10" y="234">&gt; server listening on http-port 63409</tspan>
<tspan x="10" y="250">created apidoc file:///home/travis/build/npmdoc/node-npmdoc-sequelize/tmp/build/apidoc.html</tspan>
<tspan x="10" y="266"></tspan>
<tspan x="10" y="282"></tspan>
<tspan x="10" y="298">browserTest - created electron entry-page /home/travis/build/npmdoc/node-npmdoc-sequelize/tmp/el\</tspan>
<tspan x="10" y="314">ectron.15b057307b10.d9616c7389f6d.html</tspan>
<tspan x="10" y="330"></tspan>
<tspan x="10" y="346">Xlib:  extension "RANDR" missing on display ":99.0".</tspan>
<tspan x="10" y="362"></tspan>
<tspan x="10" y="378">/home/travis/build/npmdoc/node-npmdoc-sequelize/node_modules/utility2/lib.utility2.sh.html.js</tspan>
<tspan x="10" y="394"> #1 Line too long.</tspan>
<tspan x="10" y="410">    process.stdout.write('export npm_package_' + key.replace((/\W/g), '_') + '=' + JSON.stringif\</tspan>
<tspan x="10" y="426">y(value) + ';'); // Line 1445, Pos 116</tspan>
<tspan x="10" y="442"></tspan>
<tspan x="10" y="458">merging file:///home/travis/build/npmdoc/node-npmdoc-sequelize/tmp/build/test-report.json to tes\</tspan>
<tspan x="10" y="474">t-report</tspan>
<tspan x="10" y="490">Xlib:  extension "RANDR" missing on display ":99.0".</tspan>
<tspan x="10" y="506">[4843:0325/123117:WARNING:audio_manager.cc(314)] Multiple instances of AudioManager detected</tspan>
<tspan x="10" y="522">[4843:0325/123117:WARNING:audio_manager.cc(275)] Multiple instances of AudioManager detected</tspan>
<tspan x="10" y="538">[4860:0325/123117:ERROR:sandbox_linux.cc(343)] InitializeSandbox() called with multiple threads \</tspan>
<tspan x="10" y="554">in process gpu-process. </tspan>
<tspan x="10" y="570">[4843:0325/123117:ERROR:browser_gpu_channel_host_factory.cc(131)] Failed to create channel.</tspan>
<tspan x="10" y="586"></tspan>
<tspan x="10" y="602">browserTest - opened url file:///home/travis/build/npmdoc/node-npmdoc-sequelize/tmp/build/apidoc\</tspan>
<tspan x="10" y="618">.html</tspan>
<tspan x="10" y="634"></tspan>
<tspan x="10" y="650">[node test-case 1 of 6 passed] - testCase_buildLib_default</tspan>
<tspan x="10" y="666">[node test-case 2 of 6 passed] - testCase_buildReadme_default</tspan>
<tspan x="10" y="682">[node test-case 3 of 6 passed] - testCase_buildTest_default</tspan>
<tspan x="10" y="698"></tspan>
<tspan x="10" y="714">browserTest - created electron entry-page /home/travis/build/npmdoc/node-npmdoc-sequelize/tmp/el\</tspan>
<tspan x="10" y="730">ectron.15b057319180.453e4d562049.html</tspan>
<tspan x="10" y="746"></tspan>
<tspan x="10" y="762">&gt; server listening on http-port 61134</tspan>
<tspan x="10" y="778">Xlib:  extension "RANDR" missing on display ":99.0".</tspan>
<tspan x="10" y="794"></tspan>
<tspan x="10" y="810">/home/travis/build/npmdoc/node-npmdoc-sequelize/node_modules/utility2/lib.utility2.sh.html.js</tspan>
<tspan x="10" y="826"> #1 Line too long.</tspan>
<tspan x="10" y="842">    process.stdout.write('export npm_package_' + key.replace((/\W/g), '_') + '=' + JSON.stringif\</tspan>
<tspan x="10" y="858">y(value) + ';'); // Line 1445, Pos 116</tspan>
<tspan x="10" y="874"></tspan>
<tspan x="10" y="890">merging file:///home/travis/build/npmdoc/node-npmdoc-sequelize/tmp/build/test-report.json to tes\</tspan>
<tspan x="10" y="906">t-report</tspan>
<tspan x="10" y="922">Xlib:  extension "RANDR" missing on display ":99.0".</tspan>
<tspan x="10" y="938">[4910:0325/123121:WARNING:audio_manager.cc(314)] Multiple instances of AudioManager detected</tspan>
<tspan x="10" y="954">[4910:0325/123121:WARNING:audio_manager.cc(275)] Multiple instances of AudioManager detected</tspan>
<tspan x="10" y="970">[4934:0325/123121:ERROR:sandbox_linux.cc(343)] InitializeSandbox() called with multiple threads \</tspan>
<tspan x="10" y="986">in process gpu-process. </tspan>
<tspan x="10" y="1002">[4910:0325/123121:ERROR:browser_gpu_channel_host_factory.cc(131)] Failed to create channel.</tspan>
<tspan x="10" y="1018"></tspan>
<tspan x="10" y="1034">browserTest - opened url http://127.0.0.1:63409?modeTest=1</tspan>
<tspan x="10" y="1050"></tspan>
<tspan x="10" y="1066"></tspan>
<tspan x="10" y="1082">browserTest - created screen-capture file:///home/travis/build/npmdoc/node-npmdoc-sequelize/tmp/\</tspan>
<tspan x="10" y="1098">build/screen-capture.npmTest.browser._2Fhome_2Ftravis_2Fbuild_2Fnpmdoc_2Fnode-npmdoc-sequelize_2\</tspan>
<tspan x="10" y="1114">Ftmp_2Fbuild_2Fapidoc.html.png</tspan>
<tspan x="10" y="1130"></tspan>
<tspan x="10" y="1146"></tspan>
<tspan x="10" y="1162">browserTest - exit-code 0 - file:///home/travis/build/npmdoc/node-npmdoc-sequelize/tmp/build/api\</tspan>
<tspan x="10" y="1178">doc.html</tspan>
<tspan x="10" y="1194"></tspan>
<tspan x="10" y="1210">[node test-case 4 of 6 passed] - testCase_buildApidoc_default</tspan>
<tspan x="10" y="1226">[4910:0325/123123:INFO:CONSOLE(203)] "----------|-----------|-----------|-----------|-----------\</tspan>
<tspan x="10" y="1242">|</tspan>
<tspan x="10" y="1258">File      |   % Stmts |% Branches |   % Funcs |   % Lines |</tspan>
<tspan x="10" y="1274">----------|-----------|-----------|-----------|-----------|</tspan>
<tspan x="10" y="1290">----------|-----------|-----------|-----------|-----------|</tspan>
<tspan x="10" y="1306">All files |       100 |       100 |       100 |       100 |</tspan>
<tspan x="10" y="1322">----------|-----------|-----------|-----------|-----------|</tspan>
<tspan x="10" y="1338">", source: file:///home/travis/build/npmdoc/node-npmdoc-sequelize/tmp/electron.15b057319180.453e\</tspan>
<tspan x="10" y="1354">4d562049.html (203)</tspan>
<tspan x="10" y="1370">[4910:0325/123123:INFO:CONSOLE(203)] "created coverage file:///tmp/build/coverage.html/index.htm\</tspan>
<tspan x="10" y="1386">l", source: file:///home/travis/build/npmdoc/node-npmdoc-sequelize/tmp/electron.15b057319180.453\</tspan>
<tspan x="10" y="1402">e4d562049.html (203)</tspan>
<tspan x="10" y="1418">[node test-case 5 of 6 passed] - testCase_buildApp_default</tspan>
<tspan x="10" y="1434"></tspan>
<tspan x="10" y="1450">browserTest - created screen-capture file:///home/travis/build/npmdoc/node-npmdoc-sequelize/tmp/\</tspan>
<tspan x="10" y="1466">build/screen-capture.npmTest.browser..png</tspan>
<tspan x="10" y="1482"></tspan>
<tspan x="10" y="1498"></tspan>
<tspan x="10" y="1514">browserTest - exit-code 0 - http://127.0.0.1:63409?modeTest=1</tspan>
<tspan x="10" y="1530"></tspan>
<tspan x="10" y="1546"></tspan>
<tspan x="10" y="1562">browserTest - merged coverage from /home/travis/build/npmdoc/node-npmdoc-sequelize/tmp/coverage.\</tspan>
<tspan x="10" y="1578">npmTest.browser.%2F.json</tspan>
<tspan x="10" y="1594"></tspan>
<tspan x="10" y="1610"></tspan>
<tspan x="10" y="1626">browserTest - merging test-report from /home/travis/build/npmdoc/node-npmdoc-sequelize/tmp/test-\</tspan>
<tspan x="10" y="1642">report.npmTest.browser.%2F.json</tspan>
<tspan x="10" y="1658"></tspan>
<tspan x="10" y="1674">[node test-case 6 of 6 passed] - testCase_webpage_default</tspan>
<tspan x="10" y="1690">------------------------------|-----------|-----------|-----------|-----------|</tspan>
<tspan x="10" y="1706">File                          |   % Stmts |% Branches |   % Funcs |   % Lines |</tspan>
<tspan x="10" y="1722">------------------------------|-----------|-----------|-----------|-----------|</tspan>
<tspan x="10" y="1738">   node-npmdoc-sequelize/     |       100 |       100 |       100 |       100 |</tspan>
<tspan x="10" y="1754">      example.js              |       100 |       100 |       100 |       100 |</tspan>
<tspan x="10" y="1770">      lib.npmdoc_sequelize.js |       100 |       100 |       100 |       100 |</tspan>
<tspan x="10" y="1786">      test.js                 |       100 |       100 |       100 |       100 |</tspan>
<tspan x="10" y="1802">------------------------------|-----------|-----------|-----------|-----------|</tspan>
<tspan x="10" y="1818">All files                     |       100 |       100 |       100 |       100 |</tspan>
<tspan x="10" y="1834">------------------------------|-----------|-----------|-----------|-----------|</tspan>
<tspan x="10" y="1850"></tspan>
<tspan x="10" y="1866">created coverage file:///home/travis/build/npmdoc/node-npmdoc-sequelize/tmp/build/coverage.html/\</tspan>
<tspan x="10" y="1882">index.html</tspan>
<tspan x="10" y="1898"></tspan>
<tspan x="10" y="1914">/home/travis/build/npmdoc/node-npmdoc-sequelize/node_modules/utility2/lib.utility2.sh.html.js</tspan>
<tspan x="10" y="1930"> #1 Line too long.</tspan>
<tspan x="10" y="1946">    process.stdout.write('export npm_package_' + key.replace((/\W/g), '_') + '=' + JSON.stringif\</tspan>
<tspan x="10" y="1962">y(value) + ';'); // Line 1445, Pos 116</tspan>
<tspan x="10" y="1978"></tspan>
<tspan x="10" y="1994">merging file:///home/travis/build/npmdoc/node-npmdoc-sequelize/tmp/build/test-report.json to tes\</tspan>
<tspan x="10" y="2010">t-report</tspan>
<tspan x="10" y="2026"></tspan>
<tspan x="10" y="2042">-------------------------------------------------------</tspan>
<tspan x="10" y="2058">| test-report - buildNpmdoc - node - linux v6.10.1 - 2017-03-25T12:30:59.166Z</tspan>
<tspan x="10" y="2074">|   26392 ms            0 failed        6 passed      |</tspan>
<tspan x="10" y="2090">-------------------------------------------------------</tspan>
<tspan x="10" y="2106"></tspan>
<tspan x="10" y="2122">created test-report file:///home/travis/build/npmdoc/node-npmdoc-sequelize/tmp/build/test-report\</tspan>
<tspan x="10" y="2138">.html</tspan>
<tspan x="10" y="2154"></tspan>
<tspan x="10" y="2170"></tspan>
<tspan x="10" y="2186">npmTest - 0 failed tests</tspan>
<tspan x="10" y="2202"></tspan>
<tspan x="10" y="2218"></tspan>
<tspan x="10" y="2234">[MODE_BUILD=npmTest] - 2017-03-25T12:31:28Z - EXIT_CODE - 0</tspan>
</text>
</svg>
